<mxfile host="app.diagrams.net" modified="2022-01-25T17:12:42.065Z" agent="5.0 (Macintosh; Intel Mac OS X 10_15_7) AppleWebKit/537.36 (KHTML, like Gecko) Chrome/97.0.4692.71 Safari/537.36" etag="emN9PTVjaYlt7gRdvCBj" version="16.2.7" type="github">
  <diagram id="MTEWoSBBJCwn7I46ZDsF" name="Page-1">
    <mxGraphModel dx="898" dy="1630" grid="1" gridSize="10" guides="1" tooltips="1" connect="1" arrows="1" fold="1" page="1" pageScale="1" pageWidth="827" pageHeight="1169" math="0" shadow="0">
      <root>
        <mxCell id="0" />
        <mxCell id="1" parent="0" />
        <mxCell id="NSkSgDt3usbKlS1RUae--1" value="" style="aspect=fixed;html=1;points=[];align=center;image;fontSize=12;image=img/lib/azure2/migrate/Cost_Management_and_Billing.svg;" vertex="1" parent="1">
          <mxGeometry x="153" y="190" width="80" height="80" as="geometry" />
        </mxCell>
        <mxCell id="NSkSgDt3usbKlS1RUae--10" style="edgeStyle=orthogonalEdgeStyle;rounded=0;orthogonalLoop=1;jettySize=auto;html=1;entryX=1;entryY=0.58;entryDx=0;entryDy=0;entryPerimeter=0;" edge="1" parent="1" source="NSkSgDt3usbKlS1RUae--2" target="NSkSgDt3usbKlS1RUae--8">
          <mxGeometry relative="1" as="geometry" />
        </mxCell>
        <mxCell id="NSkSgDt3usbKlS1RUae--11" style="edgeStyle=orthogonalEdgeStyle;rounded=0;orthogonalLoop=1;jettySize=auto;html=1;" edge="1" parent="1" source="NSkSgDt3usbKlS1RUae--2" target="NSkSgDt3usbKlS1RUae--1">
          <mxGeometry relative="1" as="geometry" />
        </mxCell>
        <mxCell id="NSkSgDt3usbKlS1RUae--18" style="edgeStyle=orthogonalEdgeStyle;rounded=0;orthogonalLoop=1;jettySize=auto;html=1;" edge="1" parent="1" source="NSkSgDt3usbKlS1RUae--2" target="NSkSgDt3usbKlS1RUae--14">
          <mxGeometry relative="1" as="geometry" />
        </mxCell>
        <mxCell id="NSkSgDt3usbKlS1RUae--2" value="" style="outlineConnect=0;dashed=0;verticalLabelPosition=bottom;verticalAlign=top;align=center;html=1;shape=mxgraph.aws3.android;fillColor=#FFD44F;gradientColor=none;" vertex="1" parent="1">
          <mxGeometry x="395" y="90" width="70" height="74" as="geometry" />
        </mxCell>
        <mxCell id="NSkSgDt3usbKlS1RUae--3" value="" style="aspect=fixed;html=1;points=[];align=center;image;fontSize=12;image=img/lib/azure2/general/Cost_Alerts.svg;" vertex="1" parent="1">
          <mxGeometry x="790" y="-40" width="59.82" height="50" as="geometry" />
        </mxCell>
        <mxCell id="NSkSgDt3usbKlS1RUae--23" style="edgeStyle=orthogonalEdgeStyle;rounded=0;orthogonalLoop=1;jettySize=auto;html=1;" edge="1" parent="1" source="NSkSgDt3usbKlS1RUae--4" target="NSkSgDt3usbKlS1RUae--5">
          <mxGeometry relative="1" as="geometry" />
        </mxCell>
        <mxCell id="NSkSgDt3usbKlS1RUae--27" value="Looker&lt;br&gt;Cost Dashboards" style="edgeLabel;html=1;align=center;verticalAlign=middle;resizable=0;points=[];" vertex="1" connectable="0" parent="NSkSgDt3usbKlS1RUae--23">
          <mxGeometry x="0.6503" y="1" relative="1" as="geometry">
            <mxPoint as="offset" />
          </mxGeometry>
        </mxCell>
        <mxCell id="NSkSgDt3usbKlS1RUae--25" style="edgeStyle=orthogonalEdgeStyle;rounded=0;orthogonalLoop=1;jettySize=auto;html=1;" edge="1" parent="1" source="NSkSgDt3usbKlS1RUae--4" target="NSkSgDt3usbKlS1RUae--3">
          <mxGeometry relative="1" as="geometry" />
        </mxCell>
        <mxCell id="NSkSgDt3usbKlS1RUae--26" value="Cost Alerts" style="edgeLabel;html=1;align=center;verticalAlign=middle;resizable=0;points=[];" vertex="1" connectable="0" parent="NSkSgDt3usbKlS1RUae--25">
          <mxGeometry x="0.5581" y="1" relative="1" as="geometry">
            <mxPoint as="offset" />
          </mxGeometry>
        </mxCell>
        <mxCell id="NSkSgDt3usbKlS1RUae--4" value="BigQuery" style="sketch=0;html=1;fillColor=#5184F3;strokeColor=none;verticalAlign=top;labelPosition=center;verticalLabelPosition=bottom;align=center;spacingTop=-6;fontSize=11;fontStyle=1;fontColor=#999999;shape=mxgraph.gcp2.hexIcon;prIcon=bigquery" vertex="1" parent="1">
          <mxGeometry x="590" y="80" width="90" height="60" as="geometry" />
        </mxCell>
        <mxCell id="NSkSgDt3usbKlS1RUae--5" value="" style="aspect=fixed;html=1;points=[];align=center;image;fontSize=12;image=img/lib/azure2/general/Dashboard.svg;" vertex="1" parent="1">
          <mxGeometry x="860" y="222" width="68" height="48" as="geometry" />
        </mxCell>
        <mxCell id="NSkSgDt3usbKlS1RUae--6" value="Azure Management API&#39;s" style="text;html=1;strokeColor=none;fillColor=none;align=center;verticalAlign=middle;whiteSpace=wrap;rounded=0;" vertex="1" parent="1">
          <mxGeometry x="163" y="300" width="60" height="30" as="geometry" />
        </mxCell>
        <mxCell id="NSkSgDt3usbKlS1RUae--8" value="" style="verticalLabelPosition=bottom;html=1;verticalAlign=top;align=center;strokeColor=none;fillColor=#00BEF2;shape=mxgraph.azure.azure_active_directory;" vertex="1" parent="1">
          <mxGeometry x="146.75" y="30" width="47.5" height="50" as="geometry" />
        </mxCell>
        <mxCell id="NSkSgDt3usbKlS1RUae--9" value="Azure AD + Service Principal&lt;br&gt;" style="text;html=1;strokeColor=none;fillColor=none;align=center;verticalAlign=middle;whiteSpace=wrap;rounded=0;" vertex="1" parent="1">
          <mxGeometry x="130" y="-10" width="60" height="30" as="geometry" />
        </mxCell>
        <mxCell id="NSkSgDt3usbKlS1RUae--12" value="Get Access Token" style="text;html=1;strokeColor=none;fillColor=none;align=center;verticalAlign=middle;whiteSpace=wrap;rounded=0;" vertex="1" parent="1">
          <mxGeometry x="223" y="10" width="60" height="30" as="geometry" />
        </mxCell>
        <mxCell id="NSkSgDt3usbKlS1RUae--13" value="Get Resource Usage Details" style="text;html=1;strokeColor=none;fillColor=none;align=center;verticalAlign=middle;whiteSpace=wrap;rounded=0;" vertex="1" parent="1">
          <mxGeometry x="283" y="150" width="60" height="30" as="geometry" />
        </mxCell>
        <mxCell id="NSkSgDt3usbKlS1RUae--19" style="edgeStyle=orthogonalEdgeStyle;rounded=0;orthogonalLoop=1;jettySize=auto;html=1;entryX=0.5;entryY=0.84;entryDx=0;entryDy=0;entryPerimeter=0;" edge="1" parent="1" source="NSkSgDt3usbKlS1RUae--14" target="NSkSgDt3usbKlS1RUae--4">
          <mxGeometry relative="1" as="geometry" />
        </mxCell>
        <mxCell id="NSkSgDt3usbKlS1RUae--20" value="Copex&lt;br&gt;Data Publish" style="edgeLabel;html=1;align=center;verticalAlign=middle;resizable=0;points=[];" vertex="1" connectable="0" parent="NSkSgDt3usbKlS1RUae--19">
          <mxGeometry x="-0.3258" y="2" relative="1" as="geometry">
            <mxPoint as="offset" />
          </mxGeometry>
        </mxCell>
        <mxCell id="NSkSgDt3usbKlS1RUae--14" value="" style="outlineConnect=0;dashed=0;verticalLabelPosition=bottom;verticalAlign=top;align=center;html=1;shape=mxgraph.aws3.android;fillColor=#FFD44F;gradientColor=none;" vertex="1" parent="1">
          <mxGeometry x="395" y="236" width="70" height="74" as="geometry" />
        </mxCell>
        <mxCell id="NSkSgDt3usbKlS1RUae--16" value="Data&lt;br&gt;Aggregator Module" style="text;html=1;strokeColor=none;fillColor=none;align=center;verticalAlign=middle;whiteSpace=wrap;rounded=0;" vertex="1" parent="1">
          <mxGeometry x="450" y="310" width="60" height="40" as="geometry" />
        </mxCell>
        <mxCell id="NSkSgDt3usbKlS1RUae--17" value="Data Collector Module" style="text;html=1;strokeColor=none;fillColor=none;align=center;verticalAlign=middle;whiteSpace=wrap;rounded=0;" vertex="1" parent="1">
          <mxGeometry x="414" y="40" width="60" height="30" as="geometry" />
        </mxCell>
        <mxCell id="NSkSgDt3usbKlS1RUae--28" value="Data Storage" style="text;html=1;strokeColor=none;fillColor=none;align=center;verticalAlign=middle;whiteSpace=wrap;rounded=0;" vertex="1" parent="1">
          <mxGeometry x="605" y="40" width="60" height="30" as="geometry" />
        </mxCell>
        <mxCell id="NSkSgDt3usbKlS1RUae--29" value="&lt;h3 class=&quot;graf graf--h3&quot;&gt;&lt;font style=&quot;font-size: 20px&quot;&gt;Azure Cost Management&amp;nbsp;&lt;/font&gt;&lt;/h3&gt;" style="text;whiteSpace=wrap;html=1;" vertex="1" parent="1">
          <mxGeometry x="320" y="390" width="360" height="70" as="geometry" />
        </mxCell>
      </root>
    </mxGraphModel>
  </diagram>
</mxfile>
